PathFileType	4	(X/Y/Z)	Patient4_TMGait_0pt5_02_left_11.trc.trc
DataRate	CameraRate	NumFrames	NumMarkers	Units	OrigDataRate	OrigDataStartFrame	OrigNumFrames
76.086956521739	76.086956521739	5	33	mm	76.086956521739	36	       141
Frame#	Time	Sacral			L.Shoulder			Chest			R.Shoulder			Neck			R.ASIS			L.ASIS			R.Thigh.Superior			R.Thigh.Lateral			R.Thigh.Inferior			R.Patella			L.Thigh.Superior			L.Thigh.Lateral			L.Thigh.Inferior			L.Patella			L.Shank.Superior			L.Shank.Lateral			L.Shank.Inferior			R.Shank.Superior			R.Shank.Lateral			R.Shank.Inferior			R.Heel			R.Midfoot.Superior			R.Midfoot.Lateral			R.Toe			L.Heel			L.Midfoot.Lateral			L.Midfoot.Superior			L.Toe			L.Elbow			L.Wrist			R.Elbow			R.Wrist			
		X1	Y1	Z1	X2	Y2	Z2	X3	Y3	Z3	X4	Y4	Z4	X5	Y5	Z5	X6	Y6	Z6	X7	Y7	Z7	X8	Y8	Z8	X9	Y9	Z9	X10	Y10	Z10	X11	Y11	Z11	X12	Y12	Z12	X13	Y13	Z13	X14	Y14	Z14	X15	Y15	Z15	X16	Y16	Z16	X17	Y17	Z17	X18	Y18	Z18	X19	Y19	Z19	X20	Y20	Z20	X21	Y21	Z21	X22	Y22	Z22	X23	Y23	Z23	X24	Y24	Z24	X25	Y25	Z25	X26	Y26	Z26	X27	Y27	Z27	X28	Y28	Z28	X29	Y29	Z29	X30	Y30	Z30	X31	Y31	Z31	X32	Y32	Z32	X33	Y33	Z33	

36	14.190000000000	611.935519166042	1011.249709570371	482.619801639549	775.243322431634	1434.665792540826	292.853922061687	891.673550899069	1363.501003556032	443.492301796746	825.015330320550	1440.525873942926	623.768538620922	788.560894725092	1494.526100719205	443.113278294796	839.555562113719	941.213027807392	590.085878355987	819.162382886425	956.046811903579	315.985565692838	852.386851522816	729.150061834799	570.331513757479	756.053434554557	629.720495004597	630.939638723699	827.295878237843	564.198593253869	555.606691113977	809.999240202728	462.095310923481	568.472150150968	887.454330293940	764.439390260444	355.023493302556	818.558996418371	638.632460381234	290.793333848107	912.383033032189	572.055206793844	355.199090779360	921.605892885267	501.080326739533	363.098016019343	902.577258339463	427.534203833692	353.732868092453	825.838566866822	304.850689279569	300.937877700873	889.509670159559	199.328564665680	371.577425044782	743.956292112070	391.041936856392	572.052498831406	634.401235950501	328.613820952776	633.093021244300	636.701553636081	222.124692661451	575.875327616369	446.713234739008	111.826806479004	549.287790767781	625.664138022928	106.451412405491	578.488866228505	524.183669076823	72.402378700585	618.440923106304	722.279420991476	33.858462400870	600.034508799037	774.424332959147	37.431014724044	407.903064810413	852.845142370187	35.517979957190	331.317517499802	933.178924364927	98.125677541536	361.320431852254	1063.208844981826	49.284325732544	341.748773138116	665.699854801149	1094.521648905191	191.054992759954	703.424500648553	834.636453052986	192.522061491192	907.554073181716	1106.392308771006	733.764663250158	1131.046088181544	1101.369672148755	619.119462487770	
37	14.203142857143	611.434084843057	1011.555052774766	479.427943343829	776.316794707614	1434.491094977194	289.290250307891	891.603880772824	1364.001173036169	441.107393962956	823.517570939146	1441.756467695291	620.539741462863	788.287355015319	1494.991106669242	439.349588197006	838.501385353601	941.836175272259	588.321750275212	819.799332558078	956.366618794859	314.286129588735	856.579237036689	730.889191885133	568.968637756022	763.048652039326	629.412171740963	629.489237134464	836.739125673559	565.017271196925	554.740682946795	820.850721808827	461.025754195876	568.829990657636	886.860606527153	763.596433165241	351.845219770680	815.986040950062	638.443258659511	288.961534168795	909.468128352426	571.227070972803	353.087979526646	918.084396648922	500.504622695529	361.665925846140	898.716321222875	426.958046961576	352.525624751397	821.325001911400	304.624012925303	299.750724005763	883.889018577594	198.936268366128	371.113490843822	752.102157316513	391.183286239455	571.849180352051	640.047091062657	332.869949704620	632.376028329803	639.118759701254	226.132600476356	575.948272782693	445.739403909395	124.056356319362	549.101714243101	623.945678648516	109.770946569774	578.723450200422	520.908469719834	80.590146029131	618.131300814511	716.153979253045	33.003873158284	600.162886029444	767.871254412472	37.374914604515	407.819488477276	846.252134501318	35.426441972602	331.156300372738	926.599893493021	98.012737630091	361.183809278371	1056.657183815336	49.213756023955	341.603716259160	672.037053498730	1092.622067539042	185.949890918472	716.158680907921	833.798740341971	187.190616208368	897.683836172216	1105.728759156503	732.715687010928	1122.541695466052	1084.582228435231	620.915591284348	
38	14.216285714286	610.818917651776	1011.584271204257	476.361775976274	777.382921618722	1434.107899168299	285.845155374805	891.424147348386	1364.310212586483	438.908780772479	821.773259331182	1442.732121790233	617.470453733201	787.918414973600	1495.272893226135	435.694990213388	837.332475656349	942.188098390896	586.605787556470	820.257587349421	956.543851436395	312.739513238628	861.099113084322	732.808299576768	567.511226698394	770.774993075780	629.193577126840	628.124456653280	846.852286169432	566.117077695017	553.844108263452	832.508477458184	460.338705532137	569.043692210490	886.031484878697	762.602194639598	348.715707895026	813.390418149343	638.183252060782	287.079177016060	906.513729716370	570.386682618505	350.993688099929	914.557336801985	499.867166891410	360.099154817050	894.828969170918	426.309509442688	351.228697882455	816.764023931962	304.310926247652	298.532414944887	878.258307726573	198.487003931899	370.600094888001	761.193099770811	391.590499024086	571.588562803835	646.764899368168	337.517366958355	631.618717671486	642.444066378539	230.680055248157	575.879845139154	445.926279679732	137.317950593305	548.656081655081	623.012249721711	113.936573386574	578.996812882143	518.489606477012	89.877183778896	617.706287484115	710.491676243512	32.279513229244	600.511709988112	761.273620238033	37.318536086612	407.749617471667	839.625780618880	35.309966293877	331.017432787222	920.029058509803	97.832196212267	361.078716774430	1050.098358589397	48.997432935432	341.525458965608	678.834067918251	1090.563007707154	180.757963197037	729.234678722264	832.931663685403	181.814291531273	887.243337004762	1104.939320202999	731.652202361414	1112.498087759655	1067.196934419428	623.352353149594	
39	14.229428571429	610.090608046284	1011.371522796093	473.446138623430	778.389158272612	1433.556136578692	282.571886561810	891.120928078861	1364.444641908571	436.911979634447	819.825461936644	1443.456620561734	614.601975187240	787.469336002508	1495.393180607645	432.207490795465	836.068595908999	942.296070378504	584.914258724110	820.508219421588	956.615600114495	311.302364001332	865.803195346725	734.950061161437	565.903757955861	779.072713417046	629.177478602924	626.850804620419	857.400844850629	567.593374197551	552.898466536829	844.766195293985	460.156891113641	569.104141795043	884.996656376386	761.558649633346	345.744172197782	810.876218708667	637.906335429511	285.168655748280	903.590409303860	569.576186926292	348.968781162448	911.084822335634	499.188444196869	358.442876160597	890.966738490661	425.610943681135	349.869754573157	812.201003067363	303.950970068573	297.288073664811	872.645173818592	198.003925078011	370.039071222849	771.067838769080	392.343970333293	571.277138738144	654.421994310385	342.535583778390	630.821501177597	646.673453728434	235.725564724479	575.669548732135	447.365971669629	151.254039083007	547.904842589771	622.986978414831	118.915831978439	579.298986991358	517.094954843706	100.060444518792	617.158476955816	705.559882399563	31.848689597167	601.134121039434	754.653241259582	37.271075506469	407.677366763913	832.986337464012	35.183678673640	330.887330486266	913.477459687729	97.611365611882	360.987027627090	1043.544903520092	48.678576163628	341.492127164622	686.148779840344	1088.389201920142	175.547225703251	742.618903443550	832.055022653301	176.440325957424	876.293437329894	1104.037179161131	730.601646264818	1100.827444891035	1049.266114331259	626.492763484595	
40	14.242571428571	609.254815990256	1010.977544756714	470.693550072883	779.284615633257	1432.897614769992	279.516801904787	890.684512451330	1364.443478127459	435.124655671366	817.722267729280	1443.956128262327	611.967708073060	786.956119443719	1495.390793510210	428.940591399182	834.733847946946	942.223618510108	583.238131514281	820.538078778647	956.629268644564	309.931830071657	870.538229348721	737.355176039375	564.116547295467	787.740348012133	629.474211864919	625.673995575314	868.131165194049	569.531711093753	551.902873101193	857.395298607458	460.586467925418	569.026534208002	883.790379677104	760.549726187594	342.994231561013	808.478149297992	637.646486806915	283.265955368579	900.729219038632	568.817957823543	347.042893937898	907.692230122061	498.487935638528	356.748383216570	887.150490269582	424.886490236795	348.484405682015	807.651140900845	303.581889570888	296.042004742619	867.061073219311	197.510520640593	369.440796237469	781.543428740357	393.513705231890	570.935540271785	662.858020613899	347.868465674215	629.992753964305	651.797760691058	241.176499344400	575.335162943642	450.120526882853	165.389380481663	546.831136964711	624.010405462339	124.590503380611	579.622477939304	516.897968967846	110.818311712159	616.493888443679	701.684227630234	31.884571162698	602.063533004761	748.026647823461	37.238980937993	407.591824806675	826.348258705004	35.060572099177	330.756517403308	906.948663339554	97.376287068864	360.894113142571	1037.002860177167	48.301973172236	341.481499489251	694.024258143348	1086.172944522327	170.398077617161	756.279829768524	831.215006660212	171.120517558767	864.909141666768	1103.061561321779	729.587183213775	1087.454995366752	1030.862998620683	630.384226434496	
